<svg width="262" height="262" viewBox="0 0 262 262" fill="none" xmlns="http://www.w3.org/2000/svg">
<g clipPath="url(#clip0_11_2)">
<rect width="262" height="262" fill="white"/>
<path d="M203.1 53.53H141.39V23.02H119.61V53.53H57.9C35.8506 53.53 17.97 70.2285 17.97 90.82V202.69C17.97 223.282 35.8506 239.98 57.9 239.98H203.1C225.149 239.98 243.03 223.282 243.03 202.69V90.82C243.03 70.2285 225.149 53.53 203.1 53.53ZM221.25 202.69C221.25 207.179 219.336 211.496 215.933 214.674C212.53 217.852 207.907 219.64 203.1 219.64H57.9C47.875 219.64 39.75 212.052 39.75 202.69V90.82C39.75 81.4578 47.875 73.87 57.9 73.87H203.1C207.907 73.87 212.53 75.6577 215.933 78.8357C219.336 82.0137 221.25 86.3306 221.25 90.82V202.69Z" fill="#1E1E1E"/>
<path d="M97.7464 114.642C109.728 125.831 91.7485 142.609 79.7808 131.433C67.7989 120.243 85.7645 103.465 97.7464 114.642Z" fill="#1E1E1E"/>
<path d="M181.247 114.642C193.229 125.818 175.25 142.596 163.282 131.419C151.3 120.23 169.265 103.452 181.247 114.642Z" fill="#1E1E1E"/>
<path d="M130.5 168.79C120.206 168.75 110.422 164.632 103.558 157.468L87.2942 171.028H87.3084C98.2692 182.549 113.981 189.144 130.487 189.144C146.994 189.144 162.703 182.549 173.666 171.028L157.402 157.468C150.553 164.632 140.78 168.737 130.5 168.79Z" fill="#1E1E1E"/>
</g>
<defs>
<clipPath id="clip0_11_2">
<rect width="262" height="262" fill="white"/>
</clipPath>
</defs>
</svg>
